<svg width="135" height="136" viewBox="0 0 135 136" fill="none" xmlns="http://www.w3.org/2000/svg">
<path d="M124.812 109.875H108.376V126.5H103.68V109.875H87.2443V105.125H103.68V88.5H108.376V105.125H124.812V109.875Z" fill="black" fill-opacity="0.1"/>
<path d="M94.0661 84.2563C86.3298 79.8882 80.3957 77.4389 75.1132 76.4999L75.6599 75.6996C75.9192 75.4235 76.0487 75.0095 75.9192 74.5955L74.6938 69.3768C77.8538 64.5484 79.6682 58.5226 79.5485 52.7895V44.5799C79.6365 44.5125 79.723 44.4429 79.8078 44.3708C81.4928 42.8526 82.4003 40.6444 82.4003 38.4363C82.4003 28.0854 74.4934 19.6667 64.9014 19.6667H53.365C43.6434 19.6667 35.7366 28.0854 35.6068 38.2983C35.6068 40.6446 36.5141 42.7148 38.1993 44.2328C38.2417 44.2676 38.2859 44.2999 38.3289 44.3337V52.7895C38.3289 58.5404 40.2194 64.5861 43.4323 69.4219L42.2175 74.5953C42.2175 74.8714 42.2175 75.2854 42.4768 75.6995L43.0235 76.4997C37.741 77.4389 31.8067 79.888 24.0706 84.2561C21.6077 85.4984 20.1818 88.1206 20.1818 91.0188V96.9533C20.1818 97.7814 20.7003 98.3334 21.478 98.3334H96.6584C97.4361 98.3334 97.9546 97.7814 97.9546 96.9533V91.0188C97.9547 88.2587 96.3992 85.6363 94.0661 84.2563ZM72.6785 72.1112L73.197 74.5955L71.8728 76.5312C71.7884 76.6048 71.7102 76.6939 71.6415 76.8036L64.5124 87.2925L61.0173 78.8853C64.7881 78.4023 68.1928 76.5419 71.0248 73.8287C71.5935 73.2948 72.1458 72.7221 72.6785 72.1112ZM78.1226 42.1625C78.0886 42.1942 78.0531 42.2236 78.0183 42.2542C77.8726 42.2902 77.7312 42.3483 77.6042 42.4386C77.0434 42.8864 76.4446 43.1712 75.8286 43.2962C75.3401 43.376 74.8431 43.3688 74.3637 43.2666C65.067 41.3871 55.6634 41.2142 46.638 42.7475C45.6363 42.9016 44.6379 43.074 43.6434 43.2666C43.4838 43.2855 43.3241 43.2959 43.1648 43.2993C42.1227 43.2794 41.1129 42.9711 40.2732 42.3006C39.4955 41.7486 38.977 40.9205 38.7177 40.0924L44.2914 38.9883C54.013 37.0561 63.9939 37.0561 73.9747 38.9883L79.5049 40.0837C79.218 40.865 78.7399 41.5873 78.1226 42.1625ZM53.2353 22.4268H64.7717C72.7226 22.4268 79.2435 29.0194 79.7721 37.344L74.3637 36.3661C64.1237 34.4339 53.7539 34.4339 43.773 36.3661L38.3646 37.344C38.8927 29.0194 45.4086 22.4268 53.2353 22.4268ZM40.9212 45.7508C41.9582 46.0269 43.1248 46.1649 44.2914 45.8888C49.1311 44.927 54.0349 44.4442 58.9711 44.44C63.9078 44.4442 68.8765 44.9268 73.8451 45.8888C74.1992 45.9831 74.4924 46.0124 74.7668 46.0219C75.5829 46.0877 76.4356 45.9583 77.2152 45.7508V52.7895C77.2152 58.8074 75.2763 64.1551 72.3652 68.2199L72.2895 68.2468C72.1599 68.3848 72.0302 68.5229 71.9006 68.6608C71.2485 69.5866 70.5603 70.4307 69.8412 71.1918C66.6227 74.3844 62.7497 76.2514 59.0683 76.2514C58.9335 76.2514 58.7989 76.2485 58.6645 76.244C56.4744 76.1638 54.228 75.4334 52.1012 74.1678C49.9906 72.8769 48.0051 71.0157 46.2357 68.6607C46.1062 68.5227 45.9764 68.3846 45.8469 68.2466L45.7712 68.2198C42.8602 64.1548 40.9212 58.8071 40.9212 52.7893V45.7508ZM57.1192 78.8853L53.6242 87.2925L46.495 76.8036C46.4537 76.7596 46.4081 76.7161 46.3608 76.6732L44.9396 74.5953L45.458 72.1111C45.6333 72.3121 45.8112 72.508 45.9906 72.7008C49.0403 76.0223 52.8457 78.3381 57.1192 78.8853ZM95.3622 95.5732H22.7743V91.0188C22.7743 89.2247 23.6816 87.5686 25.2371 86.7405C33.4994 82.067 39.447 79.7214 44.7453 79.0208L52.8464 90.8809C53.05 91.2061 53.3348 91.3594 53.6983 91.4109C53.7597 91.4238 53.8215 91.4329 53.8833 91.4329C53.8833 91.4329 54.0129 91.4328 54.0129 91.5708C54.4017 91.5708 54.9202 91.1568 55.0499 90.7427L59.0754 81.0989L60.7905 85.1046L63.0865 90.6048C63.2161 91.0188 63.6049 91.4329 64.1235 91.4329H64.2531C64.6419 91.4329 65.0308 91.1568 65.2901 90.8809L73.4749 78.8981C78.7545 79.7463 84.809 82.0902 92.8995 86.6024C94.4549 87.5684 95.3622 89.2245 95.3622 91.0188V95.5732Z" fill="black" fill-opacity="0.1"/>
<path d="M94.1934 84.0411L94.189 84.0386C86.6263 79.7685 80.7636 77.3178 75.5364 76.3236L75.8559 75.8558C76.1591 75.5233 76.3129 75.0286 76.1606 74.5299L74.9616 69.4238C78.111 64.5714 79.9179 58.5367 79.7985 52.787V44.7019C79.8562 44.6561 79.9133 44.6093 79.9698 44.5612L79.9699 44.5612L79.9751 44.5565C81.7162 42.9878 82.6503 40.7105 82.6503 38.4363C82.6503 27.9635 74.6472 19.4167 64.9014 19.4167H53.365C43.4916 19.4167 35.4881 27.9609 35.3568 38.2952H35.3568V38.2983C35.3568 40.713 36.2924 42.8515 38.032 44.4186L38.0318 44.4188L38.0407 44.4261C38.0526 44.4358 38.0656 44.4462 38.0789 44.4566V52.7895C38.0789 58.5558 39.9617 64.61 43.1642 69.4699L41.9741 74.5382L41.9675 74.5663V74.5953V74.604C41.9675 74.8826 41.9674 75.3571 42.2649 75.8321L42.2648 75.8322L42.2704 75.8405L42.6003 76.3234C37.3743 77.3176 31.5129 79.7672 23.9528 84.0355C21.3965 85.3276 19.9318 88.0429 19.9318 91.0188V96.9533C19.9318 97.4196 20.0785 97.8295 20.356 98.125C20.6349 98.4219 21.0274 98.5834 21.478 98.5834H96.6584C97.109 98.5834 97.5015 98.4219 97.7803 98.125C98.0579 97.8295 98.2046 97.4196 98.2046 96.9533V91.0188C98.2047 88.1675 96.6002 85.4647 94.1934 84.0411ZM40.4179 42.0967C39.7742 41.6398 39.3155 40.9753 39.0484 40.2818L44.34 39.2335L44.3402 39.2335C54.0291 37.3078 63.9772 37.3075 73.9269 39.2337C73.927 39.2337 73.9271 39.2337 73.9272 39.2337L79.1608 40.2704C78.8823 40.91 78.4682 41.4989 77.9522 41.9796C77.9338 41.9967 77.9173 42.011 77.898 42.0276C77.7482 42.0705 77.5982 42.1361 77.4594 42.2348L77.4591 42.2345L77.4482 42.2432C76.9167 42.6676 76.3553 42.9334 75.7836 43.0503C75.3255 43.1245 74.8615 43.1171 74.4158 43.0221L74.4132 43.0216C65.088 41.1363 55.6542 40.9625 46.598 42.5007C45.5971 42.6547 44.5991 42.827 43.605 43.0194C43.4588 43.0364 43.3119 43.046 43.1645 43.0492C42.1709 43.0293 41.2184 42.7354 40.4292 42.1052L40.4237 42.1008L40.4179 42.0967ZM72.2059 68.0112L72.1488 68.0315L72.1073 68.0756L71.9128 68.2827L71.7184 68.4897L71.7064 68.5025L71.6963 68.5169C71.0515 69.4322 70.3716 70.266 69.6622 71.0172C66.4773 74.1753 62.6654 76.0014 59.0683 76.0014C58.9371 76.0014 58.8055 75.9986 58.673 75.9942C56.5326 75.9156 54.3273 75.2013 52.2305 73.9538C50.1516 72.6821 48.1891 70.8443 46.4356 68.5105L46.4274 68.4995L46.418 68.4895L46.2235 68.2825L46.0291 68.0755L45.9876 68.0313L45.9305 68.011L45.929 68.0105C43.0726 63.9944 41.1712 58.7217 41.1712 52.7893V46.0708C42.1518 46.2987 43.2442 46.3926 44.3445 46.1331C49.1667 45.1751 54.0527 44.6942 58.9711 44.69C63.8888 44.6942 68.8387 45.1747 73.7893 46.1326C74.1597 46.2305 74.4681 46.2614 74.7524 46.2716C75.4936 46.3305 76.2564 46.2357 76.9652 46.0709V52.7895C76.9652 58.722 75.0639 63.9947 72.2074 68.0107L72.2059 68.0112ZM45.807 72.8705C48.8099 76.1407 52.5511 78.4593 56.764 79.0884L53.5709 86.7694L46.7018 76.6631L46.6907 76.6468L46.6773 76.6325C46.6367 76.5893 46.5937 76.5477 46.5507 76.5081L45.2061 74.5421L45.6015 72.6474C45.6698 72.7224 45.7384 72.7967 45.807 72.8705ZM95.1122 91.0188V95.3232H23.0243V91.0188C23.0243 89.3075 23.8888 87.7415 25.3545 86.9612L25.3546 86.9612L25.3601 86.9581C33.5329 82.3353 39.4127 80.0082 44.6259 79.2892L52.6372 91.0178C52.8847 91.4105 53.2368 91.5963 53.655 91.6572C53.689 91.6642 53.7251 91.6705 53.7629 91.6752V91.8208H54.0129C54.286 91.8208 54.5668 91.6813 54.7846 91.5074C55.0018 91.3339 55.1986 91.0928 55.2847 90.8292L59.0783 81.7409L60.5598 85.2009L60.5607 85.203L62.8516 90.691C63.0067 91.1715 63.4685 91.6829 64.1235 91.6829H64.2531C64.7478 91.6829 65.199 91.3429 65.4723 91.0521L65.4856 91.0379L65.4965 91.0219L73.5916 79.1704C78.7926 80.0329 84.7766 82.3588 92.7724 86.8177C94.2512 87.7384 95.1122 89.3125 95.1122 91.0188ZM71.4322 76.6668L64.5656 86.7694L61.3725 79.0884C65.0768 78.535 68.4151 76.6748 71.1968 74.0101C71.6541 73.5807 72.1008 73.1267 72.5352 72.6483L72.9305 74.5423L71.6837 76.365C71.5917 76.449 71.5069 76.5484 71.4322 76.6668ZM53.2353 22.6768H64.7717C72.4751 22.6768 78.8341 28.985 79.4993 37.0406L74.4101 36.1205C74.4097 36.1204 74.4093 36.1203 74.409 36.1202C64.1396 34.1826 53.7388 34.1824 43.727 36.1204C43.7265 36.1205 43.726 36.1206 43.7255 36.1207L38.6374 37.0406C39.302 28.9836 45.6559 22.6768 53.2353 22.6768Z" stroke="black" stroke-opacity="0.1" stroke-width="0.5"/>
</svg>
